<svg id="Layer_1" data-name="Layer 1" xmlns="http://www.w3.org/2000/svg" xmlns:xlink="http://www.w3.org/1999/xlink" viewBox="0 0 128.1 128.1"><defs><style>.cls-1{fill:none;}.cls-2{clip-path:url(#clip-path);}.cls-3{fill:#be1622;}.cls-4{fill:#fff;}</style><clipPath id="clip-path" transform="translate(-41.9 -327.7)"><rect class="cls-1" x="41.9" y="327.7" width="128.1" height="128.13"/></clipPath></defs><title>logo_IE_horizontal_sans_blanc</title><g class="cls-2"><path class="cls-3" d="M149.2,383.6c0-5.8-3.7-9.7-6.8-9.7-16,0-34.3,26-37.1,41,36.1,6.8,43.9-19.3,43.9-31.3" transform="translate(-41.9 -327.7)"/><path class="cls-3" d="M66.3,391.5c1.1-3.4,2.3-8.4-2.4-8.4a17.7,17.7,0,0,0-5.4,1.3l-9,2.8-1.2-3.9L85.2,369c4.1.4,3.5,4.1,2.5,8.8L72.5,446.4a65.7,65.7,0,0,0,13.2,6.1,74.7,74.7,0,0,1-1.3-13.8c0-33.6,29.9-69.7,63.5-69.7,11.1,0,16,6.1,16,18.4,0,20.1-26.4,40.6-60.3,32.4-4.9,21.3,3.8,36.8,19.6,33.6a64,64,0,0,0-17.3-125.7,61.6,61.6,0,0,0-13.6,1.5,12.3,12.3,0,0,1,2.1,9.6c-1,6.8-6.1,13.6-14.1,13.6s-10.7-6.8-9.9-13.6a.6.6,0,0,0,.1-.4,64.1,64.1,0,0,0-13.4,94.8" transform="translate(-41.9 -327.7)"/><path class="cls-4" d="M80.3,352.4c8,0,13.1-6.8,14.1-13.6a12.3,12.3,0,0,0-2.1-9.6,64,64,0,0,0-21.8,9.2.6.6,0,0,1-.1.4c-.8,6.8,2.5,13.6,9.9,13.6" transform="translate(-41.9 -327.7)"/><path class="cls-4" d="M103.6,419.8c33.9,8.2,60.3-12.3,60.3-32.4,0-12.3-4.9-18.4-16-18.4-33.6,0-63.5,36.1-63.5,69.7a74.7,74.7,0,0,0,1.3,13.8,63.5,63.5,0,0,0,37.5.9c-15.8,3.2-24.5-12.3-19.6-33.6m38.8-45.9c3.1,0,6.8,3.9,6.8,9.7,0,12-7.8,38.1-43.9,31.3C108.1,399.9,126.4,373.9,142.4,373.9Z" transform="translate(-41.9 -327.7)"/><path class="cls-4" d="M85.2,369,48.3,383.3l1.2,3.9,9-2.8a17.7,17.7,0,0,1,5.4-1.3c4.7,0,3.5,5,2.4,8.4l-9.2,41.7a64.9,64.9,0,0,0,15.4,13.2l15.2-68.6c1-4.7,1.6-8.4-2.5-8.8" transform="translate(-41.9 -327.7)"/></g></svg>
