<svg id="Layer_1" data-name="Layer 1" xmlns="http://www.w3.org/2000/svg" xmlns:xlink="http://www.w3.org/1999/xlink" viewBox="0 0 574.4 128.1"><defs><style>.cls-1{fill:none;}.cls-2{clip-path:url(#clip-path);}.cls-3{fill:#be1622;}.cls-4,.cls-5,.cls-6{fill:#fff;}.cls-5,.cls-6{stroke:#fff;}.cls-5{stroke-miterlimit:10;}.cls-6{stroke-width:0.68px;}</style><clipPath id="clip-path" transform="translate(-41.9 -327.7)"><rect class="cls-1" x="41.9" y="327.7" width="128.1" height="128.13"/></clipPath></defs><title>logo_IE_horizontal_sans_blanc</title><g class="cls-2"><path class="cls-3" d="M149.2,383.6c0-5.8-3.7-9.7-6.8-9.7-16,0-34.3,26-37.1,41,36.1,6.8,43.9-19.3,43.9-31.3" transform="translate(-41.9 -327.7)"/><path class="cls-3" d="M66.3,391.5c1.1-3.4,2.3-8.4-2.4-8.4a17.7,17.7,0,0,0-5.4,1.3l-9,2.8-1.2-3.9L85.2,369c4.1.4,3.5,4.1,2.5,8.8L72.5,446.4a65.7,65.7,0,0,0,13.2,6.1,74.7,74.7,0,0,1-1.3-13.8c0-33.6,29.9-69.7,63.5-69.7,11.1,0,16,6.1,16,18.4,0,20.1-26.4,40.6-60.3,32.4-4.9,21.3,3.8,36.8,19.6,33.6a64,64,0,0,0-17.3-125.7,61.6,61.6,0,0,0-13.6,1.5,12.3,12.3,0,0,1,2.1,9.6c-1,6.8-6.1,13.6-14.1,13.6s-10.7-6.8-9.9-13.6a.6.6,0,0,0,.1-.4,64.1,64.1,0,0,0-13.4,94.8" transform="translate(-41.9 -327.7)"/><path class="cls-4" d="M80.3,352.4c8,0,13.1-6.8,14.1-13.6a12.3,12.3,0,0,0-2.1-9.6,64,64,0,0,0-21.8,9.2.6.6,0,0,1-.1.4c-.8,6.8,2.5,13.6,9.9,13.6" transform="translate(-41.9 -327.7)"/><path class="cls-4" d="M103.6,419.8c33.9,8.2,60.3-12.3,60.3-32.4,0-12.3-4.9-18.4-16-18.4-33.6,0-63.5,36.1-63.5,69.7a74.7,74.7,0,0,0,1.3,13.8,63.5,63.5,0,0,0,37.5.9c-15.8,3.2-24.5-12.3-19.6-33.6m38.8-45.9c3.1,0,6.8,3.9,6.8,9.7,0,12-7.8,38.1-43.9,31.3C108.1,399.9,126.4,373.9,142.4,373.9Z" transform="translate(-41.9 -327.7)"/><path class="cls-4" d="M85.2,369,48.3,383.3l1.2,3.9,9-2.8a17.7,17.7,0,0,1,5.4-1.3c4.7,0,3.5,5,2.4,8.4l-9.2,41.7a64.9,64.9,0,0,0,15.4,13.2l15.2-68.6c1-4.7,1.6-8.4-2.5-8.8" transform="translate(-41.9 -327.7)"/></g><path class="cls-5" d="M203.4,411.9h-2.7V370.7h2.7Z" transform="translate(-41.9 -327.7)"/><path class="cls-6" d="M203.4,411.9h-2.7V370.7h2.7Z" transform="translate(-41.9 -327.7)"/><path class="cls-5" d="M215.1,370.3l34.6,36.1V370.7h2.6v42.2l-34.5-36.2v35.2h-2.7Z" transform="translate(-41.9 -327.7)"/><path class="cls-6" d="M215.1,370.3l34.6,36.1V370.7h2.6v42.2l-34.5-36.2v35.2h-2.7Z" transform="translate(-41.9 -327.7)"/><path class="cls-5" d="M271.4,411.9h-2.6V373.2H258.2v-2.5h23.9v2.5H271.4Z" transform="translate(-41.9 -327.7)"/><path class="cls-6" d="M271.4,411.9h-2.6V373.2H258.2v-2.5h23.9v2.5H271.4Z" transform="translate(-41.9 -327.7)"/><path class="cls-5" d="M291.6,373.2v14.9h16.6v2.5H291.6v18.8h17v2.5H288.9V370.7h19.7v2.5Z" transform="translate(-41.9 -327.7)"/><path class="cls-6" d="M291.6,373.2v14.9h16.6v2.5H291.6v18.8h17v2.5H288.9V370.7h19.7v2.5Z" transform="translate(-41.9 -327.7)"/><path class="cls-5" d="M338,411.9h-3.3l-13.2-19.5h-1.2v19.5h-2.7V370.7h5.8c8.5,0,12.9,3.7,12.9,10.9,0,4.4-2,7.9-5.5,9.6-1.5.7-3.2,1-6.3,1.2ZM324.2,390c6,0,9.4-3.1,9.4-8.4s-3.3-8.4-9.9-8.4h-3.4V390Z" transform="translate(-41.9 -327.7)"/><path class="cls-6" d="M338,411.9h-3.3l-13.2-19.5h-1.2v19.5h-2.7V370.7h5.8c8.5,0,12.9,3.7,12.9,10.9,0,4.4-2,7.9-5.5,9.6-1.5.7-3.2,1-6.3,1.2ZM324.2,390c6,0,9.4-3.1,9.4-8.4s-3.3-8.4-9.9-8.4h-3.4V390Z" transform="translate(-41.9 -327.7)"/><path class="cls-5" d="M349,373.2v14.9h16.7v2.5H349v18.8h17v2.5H346.3V370.7H366v2.5Z" transform="translate(-41.9 -327.7)"/><path class="cls-6" d="M349,373.2v14.9h16.7v2.5H349v18.8h17v2.5H346.3V370.7H366v2.5Z" transform="translate(-41.9 -327.7)"/><path class="cls-5" d="M375,370.3l34.6,36.1V370.7h2.7v42.2l-34.6-36.2v35.2H375Z" transform="translate(-41.9 -327.7)"/><path class="cls-6" d="M375,370.3l34.6,36.1V370.7h2.7v42.2l-34.6-36.2v35.2H375Z" transform="translate(-41.9 -327.7)"/><path class="cls-5" d="M456.5,379.2c-3.9-4.3-8.5-6.5-13.9-6.5a18.7,18.7,0,1,0,13.9,31.1v3.6c-4.6,3.6-8.7,5.2-13.7,5.2-11.6,0-21.5-9.7-21.5-21.2a21.6,21.6,0,0,1,21.5-21.3,20.6,20.6,0,0,1,13.7,5.3Z" transform="translate(-41.9 -327.7)"/><path class="cls-6" d="M456.5,379.2c-3.9-4.3-8.5-6.5-13.9-6.5a18.7,18.7,0,1,0,13.9,31.1v3.6c-4.6,3.6-8.7,5.2-13.7,5.2-11.6,0-21.5-9.7-21.5-21.2a21.6,21.6,0,0,1,21.5-21.3,20.6,20.6,0,0,1,13.7,5.3Z" transform="translate(-41.9 -327.7)"/><path class="cls-5" d="M493.6,388.2V370.7h2.7v41.2h-2.7V390.6h-25v21.3h-2.7V370.7h2.7v17.5Z" transform="translate(-41.9 -327.7)"/><path class="cls-6" d="M493.6,388.2V370.7h2.7v41.2h-2.7V390.6h-25v21.3h-2.7V370.7h2.7v17.5Z" transform="translate(-41.9 -327.7)"/><path class="cls-5" d="M509.6,373.2v14.9h16.7v2.5H509.6v18.8h17v2.5H506.9V370.7h19.7v2.5Z" transform="translate(-41.9 -327.7)"/><path class="cls-6" d="M509.6,373.2v14.9h16.7v2.5H509.6v18.8h17v2.5H506.9V370.7h19.7v2.5Z" transform="translate(-41.9 -327.7)"/><path class="cls-5" d="M556,411.9h-3.2l-13.3-19.5h-1.2v19.5h-2.6V370.7h5.8c8.5,0,12.8,3.7,12.8,10.9,0,4.4-2,7.9-5.4,9.6a17.5,17.5,0,0,1-6.3,1.2ZM542.3,390c5.9,0,9.3-3.1,9.3-8.4s-3.3-8.4-9.9-8.4h-3.4V390Z" transform="translate(-41.9 -327.7)"/><path class="cls-6" d="M556,411.9h-3.2l-13.3-19.5h-1.2v19.5h-2.6V370.7h5.8c8.5,0,12.8,3.7,12.8,10.9,0,4.4-2,7.9-5.4,9.6a17.5,17.5,0,0,1-6.3,1.2ZM542.3,390c5.9,0,9.3-3.1,9.3-8.4s-3.3-8.4-9.9-8.4h-3.4V390Z" transform="translate(-41.9 -327.7)"/><path class="cls-5" d="M567,373.2v14.9h16.7v2.5H567v18.8h17.1v2.5H564.4V370.7h19.7v2.5Z" transform="translate(-41.9 -327.7)"/><path class="cls-6" d="M567,373.2v14.9h16.7v2.5H567v18.8h17.1v2.5H564.4V370.7h19.7v2.5Z" transform="translate(-41.9 -327.7)"/><path class="cls-5" d="M611.8,377.6c-2.4-3.6-4.6-4.9-8.1-4.9a7.6,7.6,0,0,0-7.7,7.7c0,3.4,1.6,5.2,7.3,7.9a84.9,84.9,0,0,1,8.2,4.2,9.2,9.2,0,0,1,4.3,8.1c0,6.5-5.9,12-12.9,12s-9.7-3-12.1-8.9l2.3-1.1c2.5,5.3,5.3,7.4,9.8,7.4a9.9,9.9,0,0,0,10.1-9.7c0-2.5-1.4-4.7-4-6.2l-4.1-2.2-1.2-.5-1.2-.6-1.2-.6c-6.3-3.1-8.1-5.3-8.1-10s4.5-10.1,10.5-10.1a11.1,11.1,0,0,1,10,5.9Z" transform="translate(-41.9 -327.7)"/><path class="cls-6" d="M611.8,377.6c-2.4-3.6-4.6-4.9-8.1-4.9a7.6,7.6,0,0,0-7.7,7.7c0,3.4,1.6,5.2,7.3,7.9a84.9,84.9,0,0,1,8.2,4.2,9.2,9.2,0,0,1,4.3,8.1c0,6.5-5.9,12-12.9,12s-9.7-3-12.1-8.9l2.3-1.1c2.5,5.3,5.3,7.4,9.8,7.4a9.9,9.9,0,0,0,10.1-9.7c0-2.5-1.4-4.7-4-6.2l-4.1-2.2-1.2-.5-1.2-.6-1.2-.6c-6.3-3.1-8.1-5.3-8.1-10s4.5-10.1,10.5-10.1a11.1,11.1,0,0,1,10,5.9Z" transform="translate(-41.9 -327.7)"/></svg>
